{"title":"Underworld.Awakening.2012.R5.XviD.AC3-PRESTiGE.","uid":7033832,"size":1724057609,"categoryP":"video","categoryS":"movies","magnet":"?xt=urn:btih:a899cb31689e97bf36694ad1691f02bb6e50b18f&amp;dn=Underworld.Awakening.2012.R5.XviD.AC3-PRESTiGE.&amp;tr=udp%3A%2F%2Ftracker.openbittorrent.com%3A80&amp;tr=udp%3A%2F%2Fopen.demonii.com%3A1337&amp;tr=udp%3A%2F%2Ftracker.coppersurfer.tk%3A6969&amp;tr=udp%3A%2F%2Fexodus.desync.com%3A6969","seeders":0,"leechers":1,"uploader":"moviesp2p","files":4,"time":1329265872,"description":"General Information:\n\nComplete name                            : Underworld.Awakening.2012.R5.XviD.AC3-PRESTiGE\nFormat                                   : AVI\nFormat/Info                              : Audio Video Interleave\nFile size                                : 1.59 GiB\nDuration                                 : 1h 25mn\nOverall bit rate                         : 2 667 Kbps\nLanguage                                 : English\nSubs                                     : N/A\nSource                                   : V = DVD5-R5 Lum1x / A = INFERNO Many THANKS\nEncoder                                  : akosipalos\n\niMDB: http://www.imdb.com/title/tt1496025/\n\nVideo\n\nID                                       : 0\nFormat                                   : MPEG-4 Visual\nFormat profile                           : Advanced Simple@L5\nFormat settings, BVOP                    : 2\nFormat settings, QPel                    : No\nFormat settings, GMC                     : No warppoints\nFormat settings, Matrix                  : Default (H.263)\nCodec ID                                 : XVID\nCodec ID/Hint                            : XviD\nDuration                                 : 1h 25mn\nBit rate                                 : 2 211 Kbps\nWidth                                    : 720 pixels\nHeight                                   : 288 pixels\nDisplay aspect ratio                     : 2.500\nFrame rate                               : 25.000 fps\nColor space                              : YUV\nChroma subsampling                       : 4:2:0\nBit depth                                : 8 bits\nScan type                                : Progressive\nCompression mode                         : Lossy\nBits/(Pixel*Frame)                       : 0.427\nStream size                              : 1.32 GiB (83%)\nWriting library                          : XviD 1.2.1 (UTC 2008-12-04)\n\nAudio\n\nID                                       : 1\nFormat                                   : AC-3\nFormat/Info                              : Audio Coding 3\nMode extension                           : CM (complete main)\nCodec ID                                 : 2000\nDuration                                 : 1h 25mn\nBit rate mode                            : Constant\nBit rate                                 : 448 Kbps\nChannel(s)                               : 6 channels\nChannel positions                        : Front: L C R, Side: L R, LFE\nSampling rate                            : 48.0 KHz\nBit depth                                : 16 bits\nCompression mode                         : Lossy\nStream size                              : 273 MiB (17%)\nAlignment                                : Aligned on interleaves\nInterleave, duration                     : 64 ms (1.60 video frames)\nInterleave, preload duration             : 192 ms","torrent":{"xt":"urn:btih:a899cb31689e97bf36694ad1691f02bb6e50b18f","amp;dn":"Underworld.Awakening.2012.R5.XviD.AC3-PRESTiGE.","amp;tr":["udp%3A%2F%2Ftracker.openbittorrent.com%3A80","udp%3A%2F%2Fopen.demonii.com%3A1337","udp%3A%2F%2Ftracker.coppersurfer.tk%3A6969","udp%3A%2F%2Fexodus.desync.com%3A6969"],"infoHash":"a899cb31689e97bf36694ad1691f02bb6e50b18f","infoHashBuffer":{"type":"Buffer","data":[168,153,203,49,104,158,151,191,54,105,74,209,105,31,2,187,110,80,177,143]},"announce":[],"urlList":[]}}